<svg width="35" height="35" viewBox="0 0 35 35" fill="none" xmlns="http://www.w3.org/2000/svg">
<path fill-rule="evenodd" clip-rule="evenodd" d="M11.6667 14.5833C11.6667 11.3616 14.2783 8.74992 17.5 8.74992C20.7217 8.74992 23.3333 11.3616 23.3333 14.5833C23.3333 17.8049 20.7217 20.4166 17.5 20.4166C14.2783 20.4166 11.6667 17.8049 11.6667 14.5833ZM17.5 11.6666C15.8892 11.6666 14.5833 12.9724 14.5833 14.5833C14.5833 16.1941 15.8892 17.4999 17.5 17.4999C19.1108 17.4999 20.4167 16.1941 20.4167 14.5833C20.4167 12.9724 19.1108 11.6666 17.5 11.6666Z" fill="#E40037"/>
<path fill-rule="evenodd" clip-rule="evenodd" d="M4.375 14.5833C4.375 7.33451 10.2513 1.45825 17.5 1.45825C24.7487 1.45825 30.625 7.33451 30.625 14.5833C30.625 18.2673 28.9525 21.4961 26.6762 24.4518C24.7741 26.9217 22.3395 29.3352 19.9075 31.7462C19.4474 32.2022 18.9874 32.6582 18.5312 33.1144L17.5 34.1456L16.4688 33.1144C16.0126 32.6582 15.5526 32.2022 15.0925 31.7462C12.6605 29.3352 10.2259 26.9217 8.32376 24.4518C6.04746 21.4961 4.375 18.2673 4.375 14.5833ZM17.5 4.37492C11.8621 4.37492 7.29167 8.94534 7.29167 14.5833C7.29167 17.3426 8.53587 19.9471 10.6346 22.6722C12.4066 24.9732 14.6748 27.223 17.1096 29.6381C17.2393 29.7667 17.3694 29.8958 17.5 30.0254C17.6306 29.8958 17.7607 29.7667 17.8904 29.6381C20.3252 27.223 22.5934 24.9732 24.3654 22.6722C26.4641 19.9471 27.7083 17.3426 27.7083 14.5833C27.7083 8.94534 23.1379 4.37492 17.5 4.37492Z" fill="#E40037"/>
</svg>
