<svg width="35" height="27" viewBox="0 0 35 27" fill="none" xmlns="http://www.w3.org/2000/svg">
<path d="M34.6514 5.82588C34.6514 5.82588 34.3096 3.17912 33.2568 2.01694C31.9238 0.487365 30.4336 0.479866 29.75 0.389891C24.8555 -2.08616e-07 17.5068 0 17.5068 0H17.4932C17.4932 0 10.1445 -2.08616e-07 5.25 0.389891C4.56641 0.479866 3.07617 0.487365 1.74316 2.01694C0.69043 3.17912 0.355469 5.82588 0.355469 5.82588C0.355469 5.82588 0 8.93752 0 12.0417V14.9508C0 18.055 0.348633 21.1666 0.348633 21.1666C0.348633 21.1666 0.69043 23.8134 1.73633 24.9756C3.06934 26.5051 4.81934 26.4527 5.59863 26.6176C8.40137 26.91 17.5 27 17.5 27C17.5 27 24.8555 26.985 29.75 26.6026C30.4336 26.5126 31.9238 26.5051 33.2568 24.9756C34.3096 23.8134 34.6514 21.1666 34.6514 21.1666C34.6514 21.1666 35 18.0625 35 14.9508V12.0417C35 8.93752 34.6514 5.82588 34.6514 5.82588ZM13.8838 18.4824V7.69286L23.3379 13.1064L13.8838 18.4824Z" fill="white"/>
</svg>
