<svg width="35" height="35" viewBox="0 0 35 35" fill="none" xmlns="http://www.w3.org/2000/svg">
<g clip-path="url(#clip0_8_27)">
<path fill-rule="evenodd" clip-rule="evenodd" d="M17.5004 0.729164C13.3459 0.73132 9.32769 2.20275 6.16419 4.88034C3.00068 7.55794 0.898197 11.2671 0.232674 15.3446C-0.432849 19.4221 0.381982 23.602 2.53148 27.1369C4.68098 30.6719 8.02498 33.3313 11.9655 34.6397C12.8349 34.8011 13.1623 34.2623 13.1623 33.8042C13.1623 33.346 13.1449 32.0177 13.1391 30.5655C8.27079 31.6172 7.24207 28.5111 7.24207 28.5111C6.44806 26.4942 5.30052 25.964 5.30052 25.964C3.71251 24.8864 5.41934 24.9066 5.41934 24.9066C7.17832 25.0305 8.10273 26.7016 8.10273 26.7016C9.66177 29.3611 12.1974 28.5918 13.1942 28.1423C13.3507 27.0157 13.8057 26.2493 14.307 25.8142C10.4181 25.3762 6.33214 23.8837 6.33214 17.2162C6.30804 15.4871 6.95337 13.8149 8.1346 12.5456C7.95494 12.1076 7.35508 10.3385 8.30557 7.93542C8.30557 7.93542 9.77478 7.46864 13.1189 9.71897C15.9872 8.93903 19.0136 8.93903 21.8819 9.71897C25.2231 7.46864 26.6894 7.93542 26.6894 7.93542C27.6428 10.3327 27.0429 12.1018 26.8633 12.5456C28.0483 13.8151 28.6949 15.4902 28.6686 17.222C28.6686 23.9038 24.574 25.3762 20.6793 25.8055C21.3052 26.3472 21.8645 27.4047 21.8645 29.0298C21.8645 31.3579 21.8442 33.2308 21.8442 33.8042C21.8442 34.2681 22.1601 34.8097 23.0468 34.6397C26.9878 33.3312 30.3322 30.6712 32.4816 27.1357C34.6311 23.6001 35.4455 19.4196 34.7792 15.3417C34.1129 11.2639 32.0094 7.55468 28.8449 4.87755C25.6803 2.20041 21.6611 0.729953 17.5062 0.729164H17.5004Z" fill="white"/>
<path d="M11.7073 29.1306C11.7073 29.2718 11.545 29.3928 11.3364 29.3957C11.1278 29.3986 10.9568 29.2833 10.9568 29.1421C10.9568 29.0009 11.1191 28.8799 11.3277 28.877C11.5363 28.8742 11.7073 28.9865 11.7073 29.1306Z" fill="white"/>
<path d="M13.0402 28.9087C13.0662 29.0499 12.9214 29.1969 12.7127 29.2314C12.5041 29.266 12.3215 29.1825 12.2954 29.0442C12.2693 28.9059 12.42 28.756 12.6229 28.7186C12.8257 28.6811 13.0141 28.7676 13.0402 28.9087Z" fill="white"/>
<path d="M10.2756 29.0326C10.2321 29.1681 10.0351 29.2286 9.83801 29.1709C9.64096 29.1133 9.51056 28.952 9.54823 28.8137C9.5859 28.6753 9.78586 28.612 9.98581 28.6753C10.1858 28.7387 10.3133 28.8915 10.2756 29.0326Z" fill="white"/>
<path d="M8.96294 28.4679C8.86731 28.5745 8.67316 28.5457 8.51378 28.4016C8.3544 28.2575 8.31672 28.0616 8.41235 27.9579C8.50798 27.8542 8.70213 27.883 8.86731 28.0242C9.03249 28.1653 9.06437 28.3642 8.96294 28.4679Z" fill="white"/>
<path d="M8.02702 27.4998C7.9198 27.5747 7.73723 27.4998 7.6358 27.3499C7.60776 27.3231 7.58546 27.2908 7.57022 27.2552C7.55498 27.2196 7.54712 27.1812 7.54712 27.1425C7.54712 27.1038 7.55498 27.0654 7.57022 27.0298C7.58546 26.9941 7.60776 26.9619 7.6358 26.935C7.74302 26.863 7.92559 26.935 8.02702 27.082C8.12844 27.2289 8.13134 27.4249 8.02702 27.4998Z" fill="white"/>
<path d="M7.33737 26.4999C7.27736 26.53 7.2087 26.5384 7.14315 26.5237C7.0776 26.509 7.01924 26.4721 6.97804 26.4193C6.86503 26.2983 6.84183 26.1311 6.92877 26.0562C7.0157 25.9813 7.1722 26.0159 7.28521 26.1369C7.39823 26.2579 7.42431 26.425 7.33737 26.4999Z" fill="white"/>
<path d="M6.62728 25.7133C6.58961 25.7998 6.45051 25.8257 6.33749 25.7652C6.22448 25.7047 6.14045 25.5923 6.18102 25.503C6.22159 25.4137 6.35779 25.3906 6.4708 25.4511C6.58382 25.5116 6.67074 25.6269 6.62728 25.7133Z" fill="white"/>
</g>
<defs>
<clipPath id="clip0_8_27">
<rect width="35" height="35" fill="white"/>
</clipPath>
</defs>
</svg>
