<?xml version="1.0" encoding="UTF-8" standalone="no"?>
<svg
   width="35"
   height="35"
   viewBox="0 0 35 35"
   fill="none"
   version="1.1"
   id="svg4"
   sodipodi:docname="Frame 34.svg"
   inkscape:version="1.1.2 (0a00cf5339, 2022-02-04)"
   xmlns:inkscape="http://www.inkscape.org/namespaces/inkscape"
   xmlns:sodipodi="http://sodipodi.sourceforge.net/DTD/sodipodi-0.dtd"
   xmlns="http://www.w3.org/2000/svg"
   xmlns:svg="http://www.w3.org/2000/svg">
  <defs
     id="defs8" />
  <sodipodi:namedview
     id="namedview6"
     pagecolor="#ffffff"
     bordercolor="#666666"
     borderopacity="1.0"
     inkscape:pageshadow="2"
     inkscape:pageopacity="0.0"
     inkscape:pagecheckerboard="0"
     showgrid="false"
     fit-margin-top="0"
     fit-margin-left="0"
     fit-margin-right="0"
     fit-margin-bottom="0"
     inkscape:zoom="7.8"
     inkscape:cx="29.487179"
     inkscape:cy="12.820513"
     inkscape:window-width="1920"
     inkscape:window-height="1008"
     inkscape:window-x="1920"
     inkscape:window-y="0"
     inkscape:window-maximized="1"
     inkscape:current-layer="svg4" />
  <path
     d="m 11.0106,31.808188 c 13.2043,0 20.4286,-10.9423 20.4286,-20.428501 0,-0.3076 -0.0069,-0.6221 -0.0205,-0.9297 C 32.824,9.4336676 34.0368,8.1748176 35,6.7325876 c -1.3088,0.58232 -2.6984,0.96263 -4.1214,1.12793 1.4983,-0.89808 2.6201,-2.30892 3.1575,-3.97099 -1.4095,0.83532 -2.9509,1.42456 -4.5582,1.74248 -1.0829,-1.1507 -2.5148,-1.9126 -4.0742,-2.1679 -1.5594,-0.2553 -3.1595,0.01021 -4.5528,0.75548 -1.3934,0.74528 -2.5024,1.92881 -3.1557,3.36761 -0.6533,1.4388 -0.8144,3.0526894 -0.4584,4.5922894 -2.854,-0.1432 -5.6461,-0.8846 -8.1951596,-2.17614 C 6.49254,8.7118376 4.2433,6.8990476 2.43975,4.6824976 c -0.91667,1.58043 -1.19717,3.4506 -0.7845,5.2304197 0.41267,1.7797697 1.48755,3.3357697 3.00618,4.3514707 -1.1401,-0.0362 -2.25522,-0.3431 -3.25323,-0.895501 v 0.0889 c -0.00102,1.6585 0.57236,3.2663 1.62267,4.5499 1.05031,1.2836 2.51273,2.1638 4.13866,2.4911 -1.05612,0.289 -2.16456,0.3311 -3.23955,0.1231 0.45881,1.4263 1.35148,2.6739 2.55344,3.5685 1.20195,0.8946 2.6532104,1.3916 4.15128,1.4217 -2.54325,1.9977 -5.68486,3.0813 -8.91888,3.0762 -0.57353,-9e-4 -1.146488,-0.0361 -1.71582,-0.1053 3.28542,2.1078 7.10723,3.2272 11.0106,3.225201 z"
     fill="#ffffff"
     id="path2" />
</svg>
